<svg viewBox="0 0 24 24" xmlns="http://www.w3.org/2000/svg">
    <g fill="#fff">
        <path d="M17 20H2.5C1.122 20 0 18.878 0 17.5v-15C0 1.122 1.122 0 2.5 0h8c.214 0 .404.136.473.338l6.5 19c.052.152.027.321-.066.452-.094.132-.245.21-.407.21zM2.5 1C1.673 1 1 1.673 1 2.5v15c0 .827.673 1.5 1.5 1.5h13.8L10.143 1H2.5z"/>
        <path d="M21.5 24h-8c-.208 0-.395-.129-.468-.324l-1.5-4c-.097-.259.034-.547.292-.644.259-.096.547.034.644.292L13.847 23H21.5c.827 0 1.5-.673 1.5-1.5v-15c0-.827-.673-1.5-1.5-1.5H12c-.276 0-.5-.224-.5-.5s.224-.5.5-.5h9.5C22.878 4 24 5.122 24 6.5v15c0 1.378-1.122 2.5-2.5 2.5z"/>
        <path d="M13.5 24c-.117 0-.234-.041-.329-.124-.208-.182-.229-.498-.047-.706l3.5-4c.182-.209.498-.229.706-.047.208.182.229.498.047.706l-3.5 4c-.1.113-.238.171-.377.171zM9.5 14c-.206 0-.398-.127-.471-.332L7 7.987l-2.029 5.681c-.093.26-.38.396-.639.303-.26-.093-.396-.379-.303-.639l2.5-7c.142-.398.8-.398.941 0l2.5 7c.093.26-.042.546-.303.639-.054.02-.111.029-.167.029z"/>
        <path d="M8 11H6c-.276 0-.5-.224-.5-.5s.224-.5.5-.5h2c.276 0 .5.224.5.5s-.224.5-.5.5zM21.5 11h-7c-.276 0-.5-.224-.5-.5s.224-.5.5-.5h7c.276 0 .5.224.5.5s-.224.5-.5.5z"/>
        <path d="M17.5 11c-.276 0-.5-.224-.5-.5v-1c0-.276.224-.5.5-.5s.5.224.5.5v1c0 .276-.224.5-.5.5zM16 17c-.157 0-.311-.073-.408-.21-.16-.225-.107-.537.118-.697 2.189-1.555 3.79-4.727 3.79-5.592 0-.276.224-.5.5-.5s.5.224.5.5c0 1.318-1.927 4.785-4.21 6.408-.088.061-.189.091-.29.091z"/>
        <path d="M20 18c-.121 0-.242-.043-.337-.131-.363-.332-3.558-3.283-4.126-4.681-.104-.256.02-.547.275-.651.253-.103.547.019.651.275.409 1.007 2.936 3.459 3.875 4.319.204.187.217.502.031.707-.099.107-.234.162-.369.162z"/>
    </g>
</svg>
